<mxfile host="app.diagrams.net" modified="2023-10-04T07:13:28.144Z" agent="Mozilla/5.0 (Windows NT 10.0; Win64; x64) AppleWebKit/537.36 (KHTML, like Gecko) Chrome/117.0.0.0 Safari/537.36 Edg/117.0.2045.47" etag="gs4nEp4oWDUFJknsSVPL" version="22.0.2" type="github">
  <diagram name="Page-1" id="xIUvEnthZl1T5XnJPliv">
    <mxGraphModel dx="1639" dy="863" grid="0" gridSize="10" guides="1" tooltips="1" connect="1" arrows="1" fold="1" page="1" pageScale="1" pageWidth="850" pageHeight="1100" math="0" shadow="0">
      <root>
        <mxCell id="0" />
        <mxCell id="1" parent="0" />
        <mxCell id="mo6_ruxAR4N6sEVaPRu7-1" value="" style="sketch=0;pointerEvents=1;shadow=0;dashed=0;html=1;strokeColor=none;fillColor=#505050;labelPosition=center;verticalLabelPosition=bottom;verticalAlign=top;outlineConnect=0;align=center;shape=mxgraph.office.devices.tv;" vertex="1" parent="1">
          <mxGeometry x="438" y="190" width="59" height="45" as="geometry" />
        </mxCell>
        <mxCell id="mo6_ruxAR4N6sEVaPRu7-2" value="" style="shape=mxgraph.signs.transportation.car_4;html=1;pointerEvents=1;fillColor=#000000;strokeColor=none;verticalLabelPosition=bottom;verticalAlign=top;align=center;" vertex="1" parent="1">
          <mxGeometry x="228" y="186" width="54" height="46" as="geometry" />
        </mxCell>
        <mxCell id="mo6_ruxAR4N6sEVaPRu7-3" value="" style="verticalLabelPosition=bottom;sketch=0;html=1;fillColor=#A153A0;strokeColor=#ffffff;verticalAlign=top;align=center;points=[[0,0.5,0],[0.125,0.25,0],[0.25,0,0],[0.5,0,0],[0.75,0,0],[0.875,0.25,0],[1,0.5,0],[0.875,0.75,0],[0.75,1,0],[0.5,1,0],[0.125,0.75,0]];pointerEvents=1;shape=mxgraph.cisco_safe.compositeIcon;bgIcon=mxgraph.cisco_safe.design.blank_device;resIcon=mxgraph.cisco_safe.design.sensor;" vertex="1" parent="1">
          <mxGeometry x="299" y="187" width="50" height="45" as="geometry" />
        </mxCell>
        <mxCell id="mo6_ruxAR4N6sEVaPRu7-9" value="" style="rounded=0;whiteSpace=wrap;html=1;" vertex="1" parent="1">
          <mxGeometry x="149" y="299" width="177" height="257" as="geometry" />
        </mxCell>
        <mxCell id="mo6_ruxAR4N6sEVaPRu7-4" value="" style="sketch=0;outlineConnect=0;fontColor=#232F3E;gradientColor=none;fillColor=#7AA116;strokeColor=none;dashed=0;verticalLabelPosition=bottom;verticalAlign=top;align=center;html=1;fontSize=12;fontStyle=0;aspect=fixed;pointerEvents=1;shape=mxgraph.aws4.iot_thing_humidity_sensor;" vertex="1" parent="1">
          <mxGeometry x="-231" y="892" width="62" height="62" as="geometry" />
        </mxCell>
        <mxCell id="mo6_ruxAR4N6sEVaPRu7-7" value="" style="image;points=[];aspect=fixed;html=1;align=center;shadow=0;dashed=0;image=img/lib/allied_telesis/computer_and_terminals/Server_Desktop.svg;" vertex="1" parent="1">
          <mxGeometry x="214" y="81" width="42.599999999999994" height="54" as="geometry" />
        </mxCell>
        <mxCell id="mo6_ruxAR4N6sEVaPRu7-10" value="Host 1" style="text;html=1;strokeColor=none;fillColor=none;align=center;verticalAlign=middle;whiteSpace=wrap;rounded=0;" vertex="1" parent="1">
          <mxGeometry x="25" y="119" width="60" height="30" as="geometry" />
        </mxCell>
        <mxCell id="mo6_ruxAR4N6sEVaPRu7-11" value="Host 2" style="text;html=1;strokeColor=none;fillColor=none;align=center;verticalAlign=middle;whiteSpace=wrap;rounded=0;" vertex="1" parent="1">
          <mxGeometry x="681" y="55" width="60" height="30" as="geometry" />
        </mxCell>
        <mxCell id="mo6_ruxAR4N6sEVaPRu7-12" value="Host 2" style="text;html=1;strokeColor=none;fillColor=none;align=center;verticalAlign=middle;whiteSpace=wrap;rounded=0;" vertex="1" parent="1">
          <mxGeometry x="377" y="89" width="60" height="30" as="geometry" />
        </mxCell>
        <mxCell id="mo6_ruxAR4N6sEVaPRu7-14" value="" style="rounded=0;whiteSpace=wrap;html=1;" vertex="1" parent="1">
          <mxGeometry x="610" y="313" width="177" height="257" as="geometry" />
        </mxCell>
        <mxCell id="mo6_ruxAR4N6sEVaPRu7-15" value="" style="endArrow=none;dashed=1;html=1;dashPattern=1 3;strokeWidth=2;rounded=0;exitX=0;exitY=0.75;exitDx=0;exitDy=0;" edge="1" parent="1">
          <mxGeometry width="50" height="50" relative="1" as="geometry">
            <mxPoint x="-474.00000000000006" y="788" as="sourcePoint" />
            <mxPoint x="-23.5" y="790" as="targetPoint" />
          </mxGeometry>
        </mxCell>
        <mxCell id="mo6_ruxAR4N6sEVaPRu7-16" value="" style="rounded=0;whiteSpace=wrap;html=1;" vertex="1" parent="1">
          <mxGeometry x="385" y="299" width="177" height="257" as="geometry" />
        </mxCell>
        <mxCell id="mo6_ruxAR4N6sEVaPRu7-17" value="" style="endArrow=none;dashed=1;html=1;dashPattern=1 3;strokeWidth=2;rounded=0;entryX=1;entryY=0.75;entryDx=0;entryDy=0;exitX=0;exitY=0.75;exitDx=0;exitDy=0;" edge="1" parent="1" source="mo6_ruxAR4N6sEVaPRu7-16" target="mo6_ruxAR4N6sEVaPRu7-16">
          <mxGeometry width="50" height="50" relative="1" as="geometry">
            <mxPoint x="354.2" y="506" as="sourcePoint" />
            <mxPoint x="476.2" y="504" as="targetPoint" />
          </mxGeometry>
        </mxCell>
        <mxCell id="mo6_ruxAR4N6sEVaPRu7-20" value="Internet" style="ellipse;shape=cloud;whiteSpace=wrap;html=1;" vertex="1" parent="1">
          <mxGeometry x="-251" y="284" width="120" height="80" as="geometry" />
        </mxCell>
        <mxCell id="mo6_ruxAR4N6sEVaPRu7-29" style="edgeStyle=orthogonalEdgeStyle;rounded=0;orthogonalLoop=1;jettySize=auto;html=1;exitX=0.5;exitY=1;exitDx=0;exitDy=0;exitPerimeter=0;" edge="1" parent="1" source="mo6_ruxAR4N6sEVaPRu7-21">
          <mxGeometry relative="1" as="geometry">
            <mxPoint x="-371" y="532.6000061035156" as="targetPoint" />
          </mxGeometry>
        </mxCell>
        <mxCell id="mo6_ruxAR4N6sEVaPRu7-21" value="" style="sketch=0;points=[[0.5,0,0],[1,0.5,0],[0.5,1,0],[0,0.5,0],[0.145,0.145,0],[0.8555,0.145,0],[0.855,0.8555,0],[0.145,0.855,0]];verticalLabelPosition=bottom;html=1;verticalAlign=top;aspect=fixed;align=center;pointerEvents=1;shape=mxgraph.cisco19.rect;prIcon=router;fillColor=#FAFAFA;strokeColor=#005073;" vertex="1" parent="1">
          <mxGeometry x="-396" y="450" width="50" height="50" as="geometry" />
        </mxCell>
        <mxCell id="mo6_ruxAR4N6sEVaPRu7-22" value="" style="fillColor=#28A8E0;verticalLabelPosition=bottom;sketch=0;html=1;strokeColor=#ffffff;verticalAlign=top;align=center;points=[[0.145,0.145,0],[0.5,0,0],[0.855,0.145,0],[1,0.5,0],[0.855,0.855,0],[0.5,1,0],[0.145,0.855,0],[0,0.5,0]];pointerEvents=1;shape=mxgraph.cisco_safe.compositeIcon;bgIcon=ellipse;resIcon=mxgraph.cisco_safe.capability.intrusion_detection;" vertex="1" parent="1">
          <mxGeometry x="272" y="631" width="43" height="43" as="geometry" />
        </mxCell>
        <mxCell id="mo6_ruxAR4N6sEVaPRu7-26" value="" style="group" vertex="1" connectable="0" parent="1">
          <mxGeometry x="-394" y="532" width="48" height="48" as="geometry" />
        </mxCell>
        <mxCell id="mo6_ruxAR4N6sEVaPRu7-24" value="" style="ellipse;whiteSpace=wrap;html=1;aspect=fixed;" vertex="1" parent="mo6_ruxAR4N6sEVaPRu7-26">
          <mxGeometry width="48" height="48" as="geometry" />
        </mxCell>
        <mxCell id="mo6_ruxAR4N6sEVaPRu7-25" value="" style="shape=image;verticalLabelPosition=bottom;labelBackgroundColor=default;verticalAlign=top;aspect=fixed;imageAspect=0;image=data:image/png,iVBORw0KGgoAAAANSUhEUgAAAOEAAADhCAMAAAAJbSJIAAAAhFBMVEX///8AAACOjo7u7u7r6+s5OTn8/PyMjIyysrKwsLC7u7vv7+/n5+f29vaYmJiTk5PExMQ/Pz9fX1/W1tZZWVmioqK3t7dmZmbd3d3S0tJ+fn6FhYXLy8vb29slJSUaGhoTExOenp5QUFB1dXUwMDB4eHhtbW0YGBghISFJSUk0NDQLCwtjotGKAAAJFklEQVR4nO1daXfqIBA1VaOJW13iGrVaa+3z//+/15Q1m5LIDCR6P71zXgVuBmZjgEbjEQz6797betLefV+d78t+N558bQJ/1XQfatUSuOFhsXPyMF57fdMjfARu2BnnkhM4d6vJctCdKLCjOI2WpsdbFPOZOj1KclghSfY3RekRHN9Nj1wN0wKzM4l9YL96DfN0y+n4NToE85XvecFwsxhfcv7ubWCawk1MjxljHq+7015aNoO+P1xkcRwaGLgi+un5+a8T3vlN9/yR+lUXZ7xF4ab0y9FrKf1yOUxO2bGNxuM9OUivV+DXy+Tn2YANtCTcxIo6bws34cd11GUKMMzyWMX5dYqITyBhZ940D/IRjGIjG5a3acsYx3ZT4xgfgRszEZvH7Nn0R27MDidnKQ9p8fhn92XrYcNMlXXo90pLk2v5k2lp8REc5Amqq9GpFDOPDXuqshnTI0CCT9HsyaijKs2nid5v7YuWr+VsjxZIXzrQ3XbrxNv+MEbxSxCEcEAkN8nQRBVr8ATzkTu8g50RdTPk/R+hugh4F22oLm5AqIIJRiczuE5yMMUg2GiE+o2tIga8Z2CnQ3xJ5MCf+8fgs0dIETWfytXoD3xffC1e4Pvi4AHvHkOLH1hvnwidEbh84qhlmh4Fd518lO4akrNxJ1OoDTyDg+Tb8IhQuy+aB665QS0TB5+jiMEpV6goaQ0WMV0xfUXmon4g9MXTMrj5zDbttQPfFVv1a/iuZPAPCx4rMjWDaX7/wHKy4EbxH7KhENjjOG/MhcJR2zGw2QOswlmaD8eZiYMVP4DuvDG7hKDR0mDKBnQlsqDJTJaW+aeA6pR9RUM77S3a/Qiuiy+jImw0zrR/sA5c+G94G2wOgXmnHu3A3EYC3UAFS50ckbyKfISw37hHmy9ehKAPdPfUg2mdZqBNpJ85DmQMQAkwagzRIvssMIMB4pyyVILB3bwG1wUgn5k63WDbMGrwAEfxCbrIVcHUHUTbND4zEVXIoDkGnUUDFE3S8k5/y8VAty0P+lumy9B4zeAKzK15A3YJVUGd42/9Lf/YYCsiUHuhv6rvw45lCDeZqJY2X2bGMlLabf4UTIUVRZ+MRHtG2rdE0fwCyPmmZsiGGvoxjFezhnOWimIBM5SzPQw7MO4jMYdjza2WQgCzYHa2GAuu9HQnU0hkYTAJJUA9U927Xx8wRqgMaNZUd+nJ9a9VGw4HMJOvu86NtGrF0UCajdKdbLDGaeOxuG6GV+sY6p6lRNMY25ORQWfpXHOz5JSnkb3fJPowQQCp2DGepYlAGerOtpHcwVlzq6WwhPHaSD7YQJFJGjTI1711sbHH8+4Shrq32g/2RE8BzFB8exiSeol/uptdwSzvMpjBKL0eTMhSBhegIOBqi+vtwgRPLI1hQZAPtl6IubAgq+/BGAtuhcxfc0CyfgDVGH2o6V8UcDGAY4fv3YKJLCKQmrI9QMuFMCcMIeq+PBiHtyjIMjxBNE0XouFqE7pYYJJ+JO1tuGIohAl/Cej2stmdfOJ2X2Ean9owTckYvoBav5iPgn3IScqPHpmMoI6wYSpUjYA6qLmHS9seoZxeVWygbTJdBcaqhGkRL6TBukLq6vs4wPmkDIFZg+HAx6js1AxkH/k4YHzfkcGViPN5WS8mDgZtcJbI0JhNpNYYPkB1oE1SHqgxhk+j0Bgb3TtF7HdsRNmwEzsYTjE75oh78GIBGzbFQXUa6hk2mq3Fconp6RnEsgWqR9GytewkJ95GFL3oAG+TnV1Rg5XiX+DO0Qgn1KXIbmiEyl1kgR3lRJk27LYR3L1LdtEIwjYGu1cQO1FLk6fwlW7M/KJcfhfDAmfuMDthYr9kjCFFTtDEOwIuu8oY0PLz+6/MFEUOrrR7sGBRenJBdzWpGnrsBnygmzjmjgQzL7M0WfdjiKxGx4nBkBT5BfjaNYGbenbIjBQH7LY/3RHxlr8B0blNET5M5Q+szXTO1AOntZKuvM6g2EIo0xKvB2jLtjf5Rcz7yNDP8ylGDjJ8abbHBzDRswMurmKfEVctV4pE1cFTXH7zEWhYjVO+tMUBFiHFWD6YhTjwFN0zH8HpwcC/KZq6Svo5c6JyY4VxalB6cOPnAcPRk54EWcSCiQwptsTfYlDsSY9WzkoG433pwYxU0qnL/4dKsXmV/holzSiJ0WmXSIqF8sOen+loMCHFphMHxvFWV37FyOkUCuj6w73023bmRBdS9JISjICyWRR/APEUKJLsB235d5e8CSBN1IGTBs5+2DbuTe424R1Px12NTrGfXG64n56TxvKN/xNpy2+VfMhyvPammYnVwdZbJ18tPd1ewF0nia383g3WrmbmY7njdSfw38PVtr9dhX7wtv5JLSTHOd41pkkp/h3KF745WgWz66m8Vp3Ax0hl2calSG8dMEDx1xwf2kkKt3Bdq/oJMkW+mSjWImodeitQfLr6uing6vXE76TdUiFF7JxVOJx9Z3AS+NnMC8WwkqsW2w42JEWCXhikdOYvTudNd1k0kZ1HUKZo7Dh2azl99+de4Hn+atkvl6Nv5hI0OVE1Il+CEYQUrbi+owxuSTBCp+oUb0swQsWlKEkw93ohQdGK+y2KQYVgpSn2rioEZYoWHOgtgntKRqCyUpwoy6ayUlwoy+ZF0V6UoWjFtU/qOD8TxXs+S2UpftafYhkpGn3MoTi+6i/FMhQrJsX1i6LAi6K92LwoCgiKpq+7KAj1pFNlKT6BFNXzapWlWGaimilvLI0nkGIZihWT4uhFUeCpKJopGC+NYf0plpGi+YsDC6GMFF8UbcPhRVFAULTh5aoCeFGU8KJoL4L6UywjRRuuJy+AJ5BiGYpPIMUXRdvwBBS9EhQx70zRgDJSrBjFJ5BiGYomrt14AOoUR9WneKe0SBzesOIlqwJQlKKoqwa62QMQShSrTFA+HpVLsdoEFShWneBditUnKB8uz6BYB4Ly+fYUxWYtCN6QYl0I5lKsxxQlyKRYJ4KZFOtFUNxhySnWjWCKoiBYNWc7HzGK9dGiMgTF0aCGEowgKNZSghHCJMF6STDCe70lGCGstwQjhHUnKFGsK0FOsb4EKcU6E/y7l7jeBH8p5l92+h8OF1/K40pdYAAAAABJRU5ErkJggg==;" vertex="1" parent="mo6_ruxAR4N6sEVaPRu7-26">
          <mxGeometry x="9" y="9" width="30" height="30" as="geometry" />
        </mxCell>
        <mxCell id="mo6_ruxAR4N6sEVaPRu7-30" value="" style="shape=image;html=1;verticalAlign=top;verticalLabelPosition=bottom;labelBackgroundColor=#ffffff;imageAspect=0;aspect=fixed;image=https://cdn1.iconfinder.com/data/icons/software-engineering-and-video-gaming/512/501_Buildings_city_sensor_smart_urban_Hardware_Engineering_Internet-128.png" vertex="1" parent="1">
          <mxGeometry x="225" y="751" width="84" height="84" as="geometry" />
        </mxCell>
        <mxCell id="mo6_ruxAR4N6sEVaPRu7-31" style="edgeStyle=orthogonalEdgeStyle;rounded=0;orthogonalLoop=1;jettySize=auto;html=1;exitX=0.5;exitY=1;exitDx=0;exitDy=0;exitPerimeter=0;" edge="1" parent="1" source="mo6_ruxAR4N6sEVaPRu7-32">
          <mxGeometry relative="1" as="geometry">
            <mxPoint x="-185" y="532.6000061035156" as="targetPoint" />
          </mxGeometry>
        </mxCell>
        <mxCell id="mo6_ruxAR4N6sEVaPRu7-32" value="" style="sketch=0;points=[[0.5,0,0],[1,0.5,0],[0.5,1,0],[0,0.5,0],[0.145,0.145,0],[0.8555,0.145,0],[0.855,0.8555,0],[0.145,0.855,0]];verticalLabelPosition=bottom;html=1;verticalAlign=top;aspect=fixed;align=center;pointerEvents=1;shape=mxgraph.cisco19.rect;prIcon=router;fillColor=#FAFAFA;strokeColor=#005073;" vertex="1" parent="1">
          <mxGeometry x="-210" y="450" width="50" height="50" as="geometry" />
        </mxCell>
        <mxCell id="mo6_ruxAR4N6sEVaPRu7-33" value="" style="group" vertex="1" connectable="0" parent="1">
          <mxGeometry x="-208" y="532" width="48" height="48" as="geometry" />
        </mxCell>
        <mxCell id="mo6_ruxAR4N6sEVaPRu7-34" value="" style="ellipse;whiteSpace=wrap;html=1;aspect=fixed;" vertex="1" parent="mo6_ruxAR4N6sEVaPRu7-33">
          <mxGeometry width="48" height="48" as="geometry" />
        </mxCell>
        <mxCell id="mo6_ruxAR4N6sEVaPRu7-35" value="" style="shape=image;verticalLabelPosition=bottom;labelBackgroundColor=default;verticalAlign=top;aspect=fixed;imageAspect=0;image=data:image/png,iVBORw0KGgoAAAANSUhEUgAAAOEAAADhCAMAAAAJbSJIAAAAhFBMVEX///8AAACOjo7u7u7r6+s5OTn8/PyMjIyysrKwsLC7u7vv7+/n5+f29vaYmJiTk5PExMQ/Pz9fX1/W1tZZWVmioqK3t7dmZmbd3d3S0tJ+fn6FhYXLy8vb29slJSUaGhoTExOenp5QUFB1dXUwMDB4eHhtbW0YGBghISFJSUk0NDQLCwtjotGKAAAJFklEQVR4nO1daXfqIBA1VaOJW13iGrVaa+3z//+/15Q1m5LIDCR6P71zXgVuBmZjgEbjEQz6797betLefV+d78t+N558bQJ/1XQfatUSuOFhsXPyMF57fdMjfARu2BnnkhM4d6vJctCdKLCjOI2WpsdbFPOZOj1KclghSfY3RekRHN9Nj1wN0wKzM4l9YL96DfN0y+n4NToE85XvecFwsxhfcv7ubWCawk1MjxljHq+7015aNoO+P1xkcRwaGLgi+un5+a8T3vlN9/yR+lUXZ7xF4ab0y9FrKf1yOUxO2bGNxuM9OUivV+DXy+Tn2YANtCTcxIo6bws34cd11GUKMMzyWMX5dYqITyBhZ940D/IRjGIjG5a3acsYx3ZT4xgfgRszEZvH7Nn0R27MDidnKQ9p8fhn92XrYcNMlXXo90pLk2v5k2lp8REc5Amqq9GpFDOPDXuqshnTI0CCT9HsyaijKs2nid5v7YuWr+VsjxZIXzrQ3XbrxNv+MEbxSxCEcEAkN8nQRBVr8ATzkTu8g50RdTPk/R+hugh4F22oLm5AqIIJRiczuE5yMMUg2GiE+o2tIga8Z2CnQ3xJ5MCf+8fgs0dIETWfytXoD3xffC1e4Pvi4AHvHkOLH1hvnwidEbh84qhlmh4Fd518lO4akrNxJ1OoDTyDg+Tb8IhQuy+aB665QS0TB5+jiMEpV6goaQ0WMV0xfUXmon4g9MXTMrj5zDbttQPfFVv1a/iuZPAPCx4rMjWDaX7/wHKy4EbxH7KhENjjOG/MhcJR2zGw2QOswlmaD8eZiYMVP4DuvDG7hKDR0mDKBnQlsqDJTJaW+aeA6pR9RUM77S3a/Qiuiy+jImw0zrR/sA5c+G94G2wOgXmnHu3A3EYC3UAFS50ckbyKfISw37hHmy9ehKAPdPfUg2mdZqBNpJ85DmQMQAkwagzRIvssMIMB4pyyVILB3bwG1wUgn5k63WDbMGrwAEfxCbrIVcHUHUTbND4zEVXIoDkGnUUDFE3S8k5/y8VAty0P+lumy9B4zeAKzK15A3YJVUGd42/9Lf/YYCsiUHuhv6rvw45lCDeZqJY2X2bGMlLabf4UTIUVRZ+MRHtG2rdE0fwCyPmmZsiGGvoxjFezhnOWimIBM5SzPQw7MO4jMYdjza2WQgCzYHa2GAuu9HQnU0hkYTAJJUA9U927Xx8wRqgMaNZUd+nJ9a9VGw4HMJOvu86NtGrF0UCajdKdbLDGaeOxuG6GV+sY6p6lRNMY25ORQWfpXHOz5JSnkb3fJPowQQCp2DGepYlAGerOtpHcwVlzq6WwhPHaSD7YQJFJGjTI1711sbHH8+4Shrq32g/2RE8BzFB8exiSeol/uptdwSzvMpjBKL0eTMhSBhegIOBqi+vtwgRPLI1hQZAPtl6IubAgq+/BGAtuhcxfc0CyfgDVGH2o6V8UcDGAY4fv3YKJLCKQmrI9QMuFMCcMIeq+PBiHtyjIMjxBNE0XouFqE7pYYJJ+JO1tuGIohAl/Cej2stmdfOJ2X2Ean9owTckYvoBav5iPgn3IScqPHpmMoI6wYSpUjYA6qLmHS9seoZxeVWygbTJdBcaqhGkRL6TBukLq6vs4wPmkDIFZg+HAx6js1AxkH/k4YHzfkcGViPN5WS8mDgZtcJbI0JhNpNYYPkB1oE1SHqgxhk+j0Bgb3TtF7HdsRNmwEzsYTjE75oh78GIBGzbFQXUa6hk2mq3Fconp6RnEsgWqR9GytewkJ95GFL3oAG+TnV1Rg5XiX+DO0Qgn1KXIbmiEyl1kgR3lRJk27LYR3L1LdtEIwjYGu1cQO1FLk6fwlW7M/KJcfhfDAmfuMDthYr9kjCFFTtDEOwIuu8oY0PLz+6/MFEUOrrR7sGBRenJBdzWpGnrsBnygmzjmjgQzL7M0WfdjiKxGx4nBkBT5BfjaNYGbenbIjBQH7LY/3RHxlr8B0blNET5M5Q+szXTO1AOntZKuvM6g2EIo0xKvB2jLtjf5Rcz7yNDP8ylGDjJ8abbHBzDRswMurmKfEVctV4pE1cFTXH7zEWhYjVO+tMUBFiHFWD6YhTjwFN0zH8HpwcC/KZq6Svo5c6JyY4VxalB6cOPnAcPRk54EWcSCiQwptsTfYlDsSY9WzkoG433pwYxU0qnL/4dKsXmV/holzSiJ0WmXSIqF8sOen+loMCHFphMHxvFWV37FyOkUCuj6w73023bmRBdS9JISjICyWRR/APEUKJLsB235d5e8CSBN1IGTBs5+2DbuTe424R1Px12NTrGfXG64n56TxvKN/xNpy2+VfMhyvPammYnVwdZbJ18tPd1ewF0nia383g3WrmbmY7njdSfw38PVtr9dhX7wtv5JLSTHOd41pkkp/h3KF745WgWz66m8Vp3Ax0hl2calSG8dMEDx1xwf2kkKt3Bdq/oJMkW+mSjWImodeitQfLr6uing6vXE76TdUiFF7JxVOJx9Z3AS+NnMC8WwkqsW2w42JEWCXhikdOYvTudNd1k0kZ1HUKZo7Dh2azl99+de4Hn+atkvl6Nv5hI0OVE1Il+CEYQUrbi+owxuSTBCp+oUb0swQsWlKEkw93ohQdGK+y2KQYVgpSn2rioEZYoWHOgtgntKRqCyUpwoy6ayUlwoy+ZF0V6UoWjFtU/qOD8TxXs+S2UpftafYhkpGn3MoTi+6i/FMhQrJsX1i6LAi6K92LwoCgiKpq+7KAj1pFNlKT6BFNXzapWlWGaimilvLI0nkGIZihWT4uhFUeCpKJopGC+NYf0plpGi+YsDC6GMFF8UbcPhRVFAULTh5aoCeFGU8KJoL4L6UywjRRuuJy+AJ5BiGYpPIMUXRdvwBBS9EhQx70zRgDJSrBjFJ5BiGYomrt14AOoUR9WneKe0SBzesOIlqwJQlKKoqwa62QMQShSrTFA+HpVLsdoEFShWneBditUnKB8uz6BYB4Ly+fYUxWYtCN6QYl0I5lKsxxQlyKRYJ4KZFOtFUNxhySnWjWCKoiBYNWc7HzGK9dGiMgTF0aCGEowgKNZSghHCJMF6STDCe70lGCGstwQjhHUnKFGsK0FOsb4EKcU6E/y7l7jeBH8p5l92+h8OF1/K40pdYAAAAABJRU5ErkJggg==;" vertex="1" parent="mo6_ruxAR4N6sEVaPRu7-33">
          <mxGeometry x="9" y="9" width="30" height="30" as="geometry" />
        </mxCell>
        <mxCell id="mo6_ruxAR4N6sEVaPRu7-36" value="" style="shape=image;html=1;verticalAlign=top;verticalLabelPosition=bottom;labelBackgroundColor=#ffffff;imageAspect=0;aspect=fixed;image=https://cdn1.iconfinder.com/data/icons/software-engineering-and-video-gaming/512/501_Buildings_city_sensor_smart_urban_Hardware_Engineering_Internet-128.png" vertex="1" parent="1">
          <mxGeometry x="85" y="608" width="84" height="84" as="geometry" />
        </mxCell>
        <mxCell id="mo6_ruxAR4N6sEVaPRu7-37" style="edgeStyle=orthogonalEdgeStyle;rounded=0;orthogonalLoop=1;jettySize=auto;html=1;exitX=0.55;exitY=0.95;exitDx=0;exitDy=0;exitPerimeter=0;entryX=0.5;entryY=0;entryDx=0;entryDy=0;entryPerimeter=0;" edge="1" parent="1" target="mo6_ruxAR4N6sEVaPRu7-32">
          <mxGeometry relative="1" as="geometry">
            <mxPoint x="-185" y="366" as="sourcePoint" />
          </mxGeometry>
        </mxCell>
        <mxCell id="mo6_ruxAR4N6sEVaPRu7-38" style="edgeStyle=orthogonalEdgeStyle;rounded=0;orthogonalLoop=1;jettySize=auto;html=1;exitX=0.5;exitY=1;exitDx=0;exitDy=0;exitPerimeter=0;" edge="1" source="mo6_ruxAR4N6sEVaPRu7-39" parent="1">
          <mxGeometry relative="1" as="geometry">
            <mxPoint x="-61" y="532.6000061035156" as="targetPoint" />
          </mxGeometry>
        </mxCell>
        <mxCell id="mo6_ruxAR4N6sEVaPRu7-39" value="" style="sketch=0;points=[[0.5,0,0],[1,0.5,0],[0.5,1,0],[0,0.5,0],[0.145,0.145,0],[0.8555,0.145,0],[0.855,0.8555,0],[0.145,0.855,0]];verticalLabelPosition=bottom;html=1;verticalAlign=top;aspect=fixed;align=center;pointerEvents=1;shape=mxgraph.cisco19.rect;prIcon=router;fillColor=#FAFAFA;strokeColor=#005073;" vertex="1" parent="1">
          <mxGeometry x="-86" y="450" width="50" height="50" as="geometry" />
        </mxCell>
        <mxCell id="mo6_ruxAR4N6sEVaPRu7-40" value="" style="group" vertex="1" connectable="0" parent="1">
          <mxGeometry x="-84" y="532" width="48" height="48" as="geometry" />
        </mxCell>
        <mxCell id="mo6_ruxAR4N6sEVaPRu7-41" value="" style="ellipse;whiteSpace=wrap;html=1;aspect=fixed;" vertex="1" parent="mo6_ruxAR4N6sEVaPRu7-40">
          <mxGeometry width="48" height="48" as="geometry" />
        </mxCell>
        <mxCell id="mo6_ruxAR4N6sEVaPRu7-42" value="" style="shape=image;verticalLabelPosition=bottom;labelBackgroundColor=default;verticalAlign=top;aspect=fixed;imageAspect=0;image=data:image/png,iVBORw0KGgoAAAANSUhEUgAAAOEAAADhCAMAAAAJbSJIAAAAhFBMVEX///8AAACOjo7u7u7r6+s5OTn8/PyMjIyysrKwsLC7u7vv7+/n5+f29vaYmJiTk5PExMQ/Pz9fX1/W1tZZWVmioqK3t7dmZmbd3d3S0tJ+fn6FhYXLy8vb29slJSUaGhoTExOenp5QUFB1dXUwMDB4eHhtbW0YGBghISFJSUk0NDQLCwtjotGKAAAJFklEQVR4nO1daXfqIBA1VaOJW13iGrVaa+3z//+/15Q1m5LIDCR6P71zXgVuBmZjgEbjEQz6797betLefV+d78t+N558bQJ/1XQfatUSuOFhsXPyMF57fdMjfARu2BnnkhM4d6vJctCdKLCjOI2WpsdbFPOZOj1KclghSfY3RekRHN9Nj1wN0wKzM4l9YL96DfN0y+n4NToE85XvecFwsxhfcv7ubWCawk1MjxljHq+7015aNoO+P1xkcRwaGLgi+un5+a8T3vlN9/yR+lUXZ7xF4ab0y9FrKf1yOUxO2bGNxuM9OUivV+DXy+Tn2YANtCTcxIo6bws34cd11GUKMMzyWMX5dYqITyBhZ940D/IRjGIjG5a3acsYx3ZT4xgfgRszEZvH7Nn0R27MDidnKQ9p8fhn92XrYcNMlXXo90pLk2v5k2lp8REc5Amqq9GpFDOPDXuqshnTI0CCT9HsyaijKs2nid5v7YuWr+VsjxZIXzrQ3XbrxNv+MEbxSxCEcEAkN8nQRBVr8ATzkTu8g50RdTPk/R+hugh4F22oLm5AqIIJRiczuE5yMMUg2GiE+o2tIga8Z2CnQ3xJ5MCf+8fgs0dIETWfytXoD3xffC1e4Pvi4AHvHkOLH1hvnwidEbh84qhlmh4Fd518lO4akrNxJ1OoDTyDg+Tb8IhQuy+aB665QS0TB5+jiMEpV6goaQ0WMV0xfUXmon4g9MXTMrj5zDbttQPfFVv1a/iuZPAPCx4rMjWDaX7/wHKy4EbxH7KhENjjOG/MhcJR2zGw2QOswlmaD8eZiYMVP4DuvDG7hKDR0mDKBnQlsqDJTJaW+aeA6pR9RUM77S3a/Qiuiy+jImw0zrR/sA5c+G94G2wOgXmnHu3A3EYC3UAFS50ckbyKfISw37hHmy9ehKAPdPfUg2mdZqBNpJ85DmQMQAkwagzRIvssMIMB4pyyVILB3bwG1wUgn5k63WDbMGrwAEfxCbrIVcHUHUTbND4zEVXIoDkGnUUDFE3S8k5/y8VAty0P+lumy9B4zeAKzK15A3YJVUGd42/9Lf/YYCsiUHuhv6rvw45lCDeZqJY2X2bGMlLabf4UTIUVRZ+MRHtG2rdE0fwCyPmmZsiGGvoxjFezhnOWimIBM5SzPQw7MO4jMYdjza2WQgCzYHa2GAuu9HQnU0hkYTAJJUA9U927Xx8wRqgMaNZUd+nJ9a9VGw4HMJOvu86NtGrF0UCajdKdbLDGaeOxuG6GV+sY6p6lRNMY25ORQWfpXHOz5JSnkb3fJPowQQCp2DGepYlAGerOtpHcwVlzq6WwhPHaSD7YQJFJGjTI1711sbHH8+4Shrq32g/2RE8BzFB8exiSeol/uptdwSzvMpjBKL0eTMhSBhegIOBqi+vtwgRPLI1hQZAPtl6IubAgq+/BGAtuhcxfc0CyfgDVGH2o6V8UcDGAY4fv3YKJLCKQmrI9QMuFMCcMIeq+PBiHtyjIMjxBNE0XouFqE7pYYJJ+JO1tuGIohAl/Cej2stmdfOJ2X2Ean9owTckYvoBav5iPgn3IScqPHpmMoI6wYSpUjYA6qLmHS9seoZxeVWygbTJdBcaqhGkRL6TBukLq6vs4wPmkDIFZg+HAx6js1AxkH/k4YHzfkcGViPN5WS8mDgZtcJbI0JhNpNYYPkB1oE1SHqgxhk+j0Bgb3TtF7HdsRNmwEzsYTjE75oh78GIBGzbFQXUa6hk2mq3Fconp6RnEsgWqR9GytewkJ95GFL3oAG+TnV1Rg5XiX+DO0Qgn1KXIbmiEyl1kgR3lRJk27LYR3L1LdtEIwjYGu1cQO1FLk6fwlW7M/KJcfhfDAmfuMDthYr9kjCFFTtDEOwIuu8oY0PLz+6/MFEUOrrR7sGBRenJBdzWpGnrsBnygmzjmjgQzL7M0WfdjiKxGx4nBkBT5BfjaNYGbenbIjBQH7LY/3RHxlr8B0blNET5M5Q+szXTO1AOntZKuvM6g2EIo0xKvB2jLtjf5Rcz7yNDP8ylGDjJ8abbHBzDRswMurmKfEVctV4pE1cFTXH7zEWhYjVO+tMUBFiHFWD6YhTjwFN0zH8HpwcC/KZq6Svo5c6JyY4VxalB6cOPnAcPRk54EWcSCiQwptsTfYlDsSY9WzkoG433pwYxU0qnL/4dKsXmV/holzSiJ0WmXSIqF8sOen+loMCHFphMHxvFWV37FyOkUCuj6w73023bmRBdS9JISjICyWRR/APEUKJLsB235d5e8CSBN1IGTBs5+2DbuTe424R1Px12NTrGfXG64n56TxvKN/xNpy2+VfMhyvPammYnVwdZbJ18tPd1ewF0nia383g3WrmbmY7njdSfw38PVtr9dhX7wtv5JLSTHOd41pkkp/h3KF745WgWz66m8Vp3Ax0hl2calSG8dMEDx1xwf2kkKt3Bdq/oJMkW+mSjWImodeitQfLr6uing6vXE76TdUiFF7JxVOJx9Z3AS+NnMC8WwkqsW2w42JEWCXhikdOYvTudNd1k0kZ1HUKZo7Dh2azl99+de4Hn+atkvl6Nv5hI0OVE1Il+CEYQUrbi+owxuSTBCp+oUb0swQsWlKEkw93ohQdGK+y2KQYVgpSn2rioEZYoWHOgtgntKRqCyUpwoy6ayUlwoy+ZF0V6UoWjFtU/qOD8TxXs+S2UpftafYhkpGn3MoTi+6i/FMhQrJsX1i6LAi6K92LwoCgiKpq+7KAj1pFNlKT6BFNXzapWlWGaimilvLI0nkGIZihWT4uhFUeCpKJopGC+NYf0plpGi+YsDC6GMFF8UbcPhRVFAULTh5aoCeFGU8KJoL4L6UywjRRuuJy+AJ5BiGYpPIMUXRdvwBBS9EhQx70zRgDJSrBjFJ5BiGYomrt14AOoUR9WneKe0SBzesOIlqwJQlKKoqwa62QMQShSrTFA+HpVLsdoEFShWneBditUnKB8uz6BYB4Ly+fYUxWYtCN6QYl0I5lKsxxQlyKRYJ4KZFOtFUNxhySnWjWCKoiBYNWc7HzGK9dGiMgTF0aCGEowgKNZSghHCJMF6STDCe70lGCGstwQjhHUnKFGsK0FOsb4EKcU6E/y7l7jeBH8p5l92+h8OF1/K40pdYAAAAABJRU5ErkJggg==;" vertex="1" parent="mo6_ruxAR4N6sEVaPRu7-40">
          <mxGeometry x="9" y="9" width="30" height="30" as="geometry" />
        </mxCell>
        <mxCell id="mo6_ruxAR4N6sEVaPRu7-43" value="" style="shape=image;html=1;verticalAlign=top;verticalLabelPosition=bottom;labelBackgroundColor=#ffffff;imageAspect=0;aspect=fixed;image=https://cdn1.iconfinder.com/data/icons/software-engineering-and-video-gaming/512/501_Buildings_city_sensor_smart_urban_Hardware_Engineering_Internet-128.png" vertex="1" parent="1">
          <mxGeometry x="441" y="700" width="84" height="84" as="geometry" />
        </mxCell>
        <mxCell id="mo6_ruxAR4N6sEVaPRu7-44" style="edgeStyle=orthogonalEdgeStyle;rounded=0;orthogonalLoop=1;jettySize=auto;html=1;entryX=0.5;entryY=0;entryDx=0;entryDy=0;entryPerimeter=0;" edge="1" parent="1" target="mo6_ruxAR4N6sEVaPRu7-39">
          <mxGeometry relative="1" as="geometry">
            <mxPoint x="-131" y="330" as="sourcePoint" />
          </mxGeometry>
        </mxCell>
        <mxCell id="mo6_ruxAR4N6sEVaPRu7-45" style="edgeStyle=orthogonalEdgeStyle;rounded=0;orthogonalLoop=1;jettySize=auto;html=1;entryX=0.5;entryY=0;entryDx=0;entryDy=0;entryPerimeter=0;" edge="1" parent="1" target="mo6_ruxAR4N6sEVaPRu7-21">
          <mxGeometry relative="1" as="geometry">
            <mxPoint x="-251" y="330" as="sourcePoint" />
          </mxGeometry>
        </mxCell>
        <mxCell id="mo6_ruxAR4N6sEVaPRu7-46" value="" style="curved=1;endArrow=classic;html=1;rounded=0;" edge="1" parent="1">
          <mxGeometry width="50" height="50" relative="1" as="geometry">
            <mxPoint x="502" y="208" as="sourcePoint" />
            <mxPoint x="426" y="221" as="targetPoint" />
            <Array as="points">
              <mxPoint x="524" y="228" />
              <mxPoint x="530" y="254" />
              <mxPoint x="510" y="266" />
              <mxPoint x="482" y="277" />
              <mxPoint x="426" y="274" />
              <mxPoint x="404" y="251" />
              <mxPoint x="402" y="226" />
              <mxPoint x="414" y="214" />
            </Array>
          </mxGeometry>
        </mxCell>
        <mxCell id="mo6_ruxAR4N6sEVaPRu7-48" value="Train tại biên" style="text;html=1;strokeColor=none;fillColor=none;align=center;verticalAlign=middle;whiteSpace=wrap;rounded=0;" vertex="1" parent="1">
          <mxGeometry x="405" y="248" width="104" height="30" as="geometry" />
        </mxCell>
        <mxCell id="mo6_ruxAR4N6sEVaPRu7-50" value="trọng số" style="endArrow=classic;startArrow=classic;html=1;rounded=0;" edge="1" parent="1">
          <mxGeometry width="50" height="50" relative="1" as="geometry">
            <mxPoint x="472" y="182" as="sourcePoint" />
            <mxPoint x="522" y="132" as="targetPoint" />
          </mxGeometry>
        </mxCell>
        <mxCell id="mo6_ruxAR4N6sEVaPRu7-51" value="" style="verticalLabelPosition=bottom;sketch=0;html=1;fillColor=#282828;strokeColor=none;verticalAlign=top;pointerEvents=1;align=center;shape=mxgraph.cisco_safe.security_icons.firewall;" vertex="1" parent="1">
          <mxGeometry x="-394" y="616" width="49.5" height="35" as="geometry" />
        </mxCell>
        <mxCell id="mo6_ruxAR4N6sEVaPRu7-56" value="" style="endArrow=none;dashed=1;html=1;dashPattern=1 3;strokeWidth=2;rounded=0;entryX=1;entryY=0.75;entryDx=0;entryDy=0;exitX=0;exitY=0.75;exitDx=0;exitDy=0;" edge="1" parent="1">
          <mxGeometry width="50" height="50" relative="1" as="geometry">
            <mxPoint x="154.99999999999994" y="431.75" as="sourcePoint" />
            <mxPoint x="331.99999999999994" y="431.75" as="targetPoint" />
          </mxGeometry>
        </mxCell>
        <mxCell id="mo6_ruxAR4N6sEVaPRu7-57" style="edgeStyle=orthogonalEdgeStyle;rounded=0;orthogonalLoop=1;jettySize=auto;html=1;exitX=0.5;exitY=1;exitDx=0;exitDy=0;entryX=0.497;entryY=0.08;entryDx=0;entryDy=0;entryPerimeter=0;" edge="1" parent="1" source="mo6_ruxAR4N6sEVaPRu7-24" target="mo6_ruxAR4N6sEVaPRu7-51">
          <mxGeometry relative="1" as="geometry" />
        </mxCell>
        <mxCell id="mo6_ruxAR4N6sEVaPRu7-59" value="" style="endArrow=none;dashed=1;html=1;dashPattern=1 3;strokeWidth=2;rounded=0;exitX=0;exitY=0.75;exitDx=0;exitDy=0;" edge="1" parent="1">
          <mxGeometry width="50" height="50" relative="1" as="geometry">
            <mxPoint x="-448.00000000000006" y="434" as="sourcePoint" />
            <mxPoint x="2.5" y="436" as="targetPoint" />
          </mxGeometry>
        </mxCell>
        <mxCell id="mo6_ruxAR4N6sEVaPRu7-61" value="" style="sketch=0;outlineConnect=0;fontColor=#232F3E;gradientColor=none;fillColor=#232F3D;strokeColor=none;dashed=0;verticalLabelPosition=bottom;verticalAlign=top;align=center;html=1;fontSize=12;fontStyle=0;aspect=fixed;pointerEvents=1;shape=mxgraph.aws4.gear;" vertex="1" parent="1">
          <mxGeometry x="-452" y="284" width="78" height="78" as="geometry" />
        </mxCell>
        <mxCell id="mo6_ruxAR4N6sEVaPRu7-76" value="" style="swimlane;horizontal=0;whiteSpace=wrap;html=1;" vertex="1" parent="1">
          <mxGeometry x="582" y="711" width="200" height="87" as="geometry">
            <mxRectangle x="582" y="711" width="50" height="44" as="alternateBounds" />
          </mxGeometry>
        </mxCell>
        <mxCell id="mo6_ruxAR4N6sEVaPRu7-77" value="" style="swimlane;horizontal=0;whiteSpace=wrap;html=1;" vertex="1" collapsed="1" parent="1">
          <mxGeometry x="421" y="558" width="50" height="44" as="geometry">
            <mxRectangle x="421" y="558" width="200" height="109" as="alternateBounds" />
          </mxGeometry>
        </mxCell>
        <mxCell id="mo6_ruxAR4N6sEVaPRu7-80" value="" style="sketch=0;points=[[0.015,0.015,0],[0.985,0.015,0],[0.985,0.985,0],[0.015,0.985,0],[0.25,0,0],[0.5,0,0],[0.75,0,0],[1,0.25,0],[1,0.5,0],[1,0.75,0],[0.75,1,0],[0.5,1,0],[0.25,1,0],[0,0.75,0],[0,0.5,0],[0,0.25,0]];verticalLabelPosition=bottom;html=1;verticalAlign=top;aspect=fixed;align=center;pointerEvents=1;shape=mxgraph.cisco19.rect;prIcon=workgroup_switch;fillColor=#FAFAFA;strokeColor=#005073;" vertex="1" parent="1">
          <mxGeometry x="-394" y="692" width="50" height="50" as="geometry" />
        </mxCell>
        <mxCell id="mo6_ruxAR4N6sEVaPRu7-81" value="" style="shape=image;verticalLabelPosition=bottom;labelBackgroundColor=default;verticalAlign=top;aspect=fixed;imageAspect=0;image=data:image/jpeg,/9j/4AAQSkZJRgABAQAAAQABAAD/2wCEAAoHCBUUFBcVFRQYGBcZGhsZGhoYGhgiGxogHBoZHRwaGRgcISwjHBwoHRcbJEIkKS0vMjMyGiI4PTgxPCwxMjIBCwsLDw4PHBERHTEoIigxMTIxNDExMToxMTExMTExMTExMS8xMTExMzMxMzExMTExMTExMTExMTExMTExMTExMf/AABEIALQBGAMBIgACEQEDEQH/xAAcAAEAAgMBAQEAAAAAAAAAAAAABQYDBAcCAQj/xAA/EAACAQMDAgQEAwUHAwQDAAABAhEAAyEEEjEFQQYTIlEyYXGBFEKRByNiobEzUnKCkqLBFUPwJLLC4XOz0f/EABkBAQEBAQEBAAAAAAAAAAAAAAACAQMEBf/EACgRAAICAgICAgEDBQAAAAAAAAABAhEDIRIxBEFRYSITMtFCcYGhwf/aAAwDAQACEQMRAD8A7NSlKAUpSgFKUoBSlKAUpSgFKVrjUL5ht/mCh/sSQM/VTQGxSsdu4GEqQQe4rJQClKUApSlAKUpQClKUApSlAKUpQClKUApSlAKUpQClKUApSlAKUpQClKUApSlAKUpQHyvhNeLtwKCxMAAk/aqhd6oNQWP5QYVTx/iYcEn+X6zyzZVjjbJ5fko+2W+3dVuGB+hB/pVD03XNj6T1gu4a1cmJ9Gpt22meM3J/WK99T1HlW3uAoSqMw2zggEjMD27ZrkLa8XHZg0tJac/mGDnvOa5YsrypuqouSadHX9N1RvLuWgNv4fUWzIJllOvuWyCPbbb/AJ1P6Pq63Lytvi1cso1sMADuNx1P3IKCPlXFtP1y6nmsLm43QQ28k/nFzeM8hw3+tvepZPFJB00pPlAyQYBm7ZvKAO0KjL/n+We20TZ1qx1ceQLrjm55ZC9ib3kjntuj+dSPnru2T6tu6O8TE/rXLNN1yyTrdtyVAe6gMgHZq7l4bd0ZIurjnFTi9dZXsXQwuFkvW2bBELq9Ok+nvsuEit5UaXsGa+1UrXUNlvU2lJV0e/dDSIA84sR+j/oamf8AqQN62ilSjC8GPs1soIB+7fpWpglaVoWuoqVusfSLTMrT/CoYnHyM1tLdUhTPxcfOROPtW2DLSlK0ClKUApSlAKUpQClKUApSlAKUpQClKUApSlAKUpQClK+UArE92DWLUakKCSYArjvjPx/d8zbpn2hTBYBTu+zAiP8Az65Y6L74m8RLZUsDLGQg9vnH/k/SqINe4lmYeZcmY3EpmZLE/Ge+P0mKhOg6s3LLPcZndHZV+LG6G3u3c+qAJnGe07wBY9yzfqfvUNX2fN8nJJzr0uv5Nr8Q9wbHcQZlmmYgg9/Y/XAiqj1DoSW5Ks23cF3ellJ2htqgEHAdcyeT7VavwHr8tWDNEtEwvuCfl7++Kw6nUAud1tWATai/9tYPOwgyD/z9I1a6JjllEpjaK6kBW3AZgEjjMbGgn6AGa+prbiMQ6kfKIIJ5we8YqzWSAyNcBcJ8ILHEkEkD3x8swe1ZdS+nZW9GQJVIwc+qZlZPuZ54xBpNHojn1srKdSQrnBJOM45AzxGZqS02uMovmNtUkwrYAIUFgAe5RT9VX2rWTo/mZ8sQIBKuqZO6AdxKz6DgDtWtd6QyMYcq3EOpX7SJk8e1Zo6rPBlrt+JbrLqfMIZryXEI4jzrJViMdjbtGOcfxE1IX/FK3LIUqVuM17AyB5to7c//AJgO3AJ9hXPWt37axtJ77hDRPPqEgfeslvqkMsiAIIgzBBwAPascTqpJ9M7Fo+tJe1N23bugrdLtskZ36OzG4DuHRxHvI7Vt6DrJuJp3YCLdyztjllu6Avkk8lrhH2Fcd0/Ul9RDbcgTO04IJIzxGPua39H1S7bthbdwqJV4wcqW2ESPZzge/wBKyjTtPTetK90szELdt6ZramTBvLdIGOP7M5+VbGm6uRprVxoZ2NtWAIEb7otlo9gSf0rlGi8SOtxGKKVtpZHpmdmnuXXWBx8Fwj6KPmaktD4jt7LsyhhQu7v5eta4oxOfLvAf5G7RK2EzrP4lfM8vO7Zv+UTHPvNZEuK0wQYJBjsRyPqKoNrr+0pdV958rWQzEnCaiwySDnNq6pA+lSF7qG1NZYWdzNq4YHKlbNt/1/ez9q3kLLnSq+vVwzadUb/urbuY7tpmuqJPb4TI+lWCqTs0UpWDVahUUsxgAST7CtB73jivU1Wbniaz5otrJaN7liFW2gyzMTOQO0ZJAkVLafVo6hlaAVD5wQpEgspyuB3qOTKokaVHWNZu4DAQTJGIxHPuDP6+1evx8MVZWWPzEekj3DCQPvB+VamZRv0rEt9TXsMD3qjD3SlKAUpSgFKUoD5WveufoKy3mgVzH9ovjMWgbFlv3hwxH5R//f6D6isbBFftH8aSTp7LfJ2H81H/AD+lc0S2XMDJJoVLHMkn7/pVl6V05rYDKu66yFkUhYVQJNxtwyvA7qTunbGc6IlJJWzZ6D04oDaBXcQHYk8kgkridm1QSQ0EQZjAqT0ybXUyhCv6zvygG4blUSLg3bTABJERzmLXzFXfbubt87i4O/DGdp9W6dokg8GDgmtvTdRuOpDwdzDcIhm24glfcjsPnJ3UXR5HFfv9/ZsXg6qCC2wyAxgG4QWlyvOQQO/HPqM6hE1J6awzsDd+GPLUOT8RjYoAO4AGJjtPvNeOoGzbIKFgynIHw4iMtkNPI9QEfWlHPi5Oz1pr6eWENsMsSY+IHO52U8wvBBgASflq3bVpnRUUopKi4x4XIBnJAImTnE/YRF/WO7Fyx3HuDGIiMfKsq9RuMQG/eETEjM+qDMZEsSQea2j0PA6LYmmW2FC2gq+Wbn7y2yuLi79od7s2rZBBEmRBxtLCNHrl/bGAHuJDKCCANlsKVCnYwO5zMRj08SY7/q67YRrtuYDAsCPTx6gAx+U8QY5getPZW5uPmLu5O4niRLMe2WXn+9WM4Ti1qjxp9MCqbLlskAkreBAU+kEo47bVURuEw2JInR1/Sn3MWtqVycS2AePMBL4g8t2b2qSsaprawu05nvIPp+f8P8z7kV7s37fplChHLpBnvJRsGCqxx8P3GHO3WmVG/wBMtxgMk+3qB+zEH/ca1j0+4pBR1bbJA3Qfb4XgTB7TV0vWkddq3A+SYdSLkmCQGgyxIiZJwB3g+H6dbIuM6vbIcruX121wCVMGSwAYyDHyFLZcc2SP2U38Tdtk+YjCcDcCv1jGQazp1QbQGByc4xJxMzxH9Kn16aTItXA49RMHau1RywbE8iD/AM1oajpeV32hLAEEApIIkEAQn32nilr2do+Uv6keLepRnABBIyYM4ACk4/8AM1KaLrd62zP5m4kGQ/wkvaW02MZ2Kv8AoFV1+mAZW4QewYf/ADXJ/wBIrF+EvoCE9U59ENBPePiHHJApo7xywl0zovTvE2y1auXFDOL6NCmJFuw1kTM8jbJ+R+lda6brBetW7oBAuIrgHkbhMV+ZdNrHdhb2jdxEmBAzPZQIknsAa6d4cN9LduNQ6IFAAH5v4ipkCZ4gwIHapnkjjVyZdtuoq2dVZoEmtHULvVhMEgiQASPYgEEY+Yqm+IutXhYXbcyHX1AQ3DcxiPlFaGk8Y30X1hbnzOD+oEfyqY5VONrovadNE11XwVZuIqoAGAVdzdvVL3DtANy638ZK/IVIaLQDTp5QN24zEM91xua4Sdq7naR6QEEe0YjdUPpPHtokC5bdPmIYf8H+VTWh61pLhm3dtBj7wrGfcGCaqzbNt7qIFtNcCO3Bwu5u+zcNpMydon6U/BSpS5ca6pwfMW3JHt6FUR9p+dGsXHVkueVcRgQRsIEHsyszhx9xVYfout0pf8HduXEO3yrNxrZt2ySN/mPc/eeWBJCoZxzmqQPeu0DaFVvHV3FsWna44a5de7dB+DTjzGKhdxAmJ+Yyak/AetuXrNy5dPra85InCem3tQf4RA/rkmufeMfEnn3UWd9q23l2xbX+1vcPdVSc20nEnvyQ2L5+z3pLaXTi27FnZmusSADLmTOT2AHJ4Oc1RhcaUpWmClKUB8pSoTxD1nyFCIN958W0/wDk3so/n+pAmUlFWz5f65YBuK9xA1oE3EZllBE+oTgQQZ9jX578Sa23f1V27aTZbdpUEn6FoPwyZMdprb8T2bpvtdch2uBtzNmTgYIxPpxHtxEVq9L0MDzLilhyEB2kjcAWLcqCTAjJPyGZOf60WrZudL6cAod08xmgJaEsXxuyignbEE8SCdpkGJHWXMtbzvJ33HKMr7ipBU7xu4biMCOZJrPotQQxDqrswIdSBGwgxaQCNibjubb8XGBMyep1YZAls23QqR5ZUzbhYIGQpIMn0gEFRAAkVqRxzcmrekaui1qgQU4UDkQdoIAKkERk/PJIg180t9Ufe1u2452sCFzPAUiOf6Vm/EoBaS2UQMoW8WtAsGJhnJYbmWDICnEcTkurpatsbdtG9JEu7Asf0JUgiCCOxrGjzK676Nk6zSwzoLti4ASvlvuTjgsSHH27VWtTqDccseJJ4wScnjiax9Q1WxtryowQSDtaQDhuDg8e9fEuqcg/6TIraPdhgq5M2FcRELA+Uj555B+ea+WyM7QykH2n3gx8UAgYyJisBM5x/SjMR2/X/wA9qyj0H1tKRkQf5H9DWu+IEEsTAA5JOAB869vcgEkwvJ9q29BpoIe4vqP5TjYp5X5Ow59h6e7AUcsk1FWZ9Om1FUkEgHcwOCSSYX+EA7Z7xPesg96ldttFLhQwwWUFWhePTuKk5Yfp81rw+lQsB6R61whJBQlhuGD3TsTEwQO0s8XFy2aSaRiASNqkEktHA5Pv3Ee8j3raGnRydkpbUbWPq9XfMzElQ0fIQJIFYUdrlwoTFwiPLHwiBu2MwIx6RwD29hWE3gTb/dkKvKbjlmjcAZ4lRBiYxSiXjSSbJC4lwqN9u2xCyq7YZQQYJAAEcEAdkjA3TGK7oygyChwGHGImDwRA/Qe1TSNctFC6lU3kXEEqrbhu3gqkWyD2tk4CiVgitfU6dXi4r4wssWJIUAFzyQqjsAcARyKnsqeKtJ7NX8B5ZBugbX5wxIMEgNx6iDPJIBnsK07+lsO+22SIUkmZGD8R3AGMrgSZJxiK2zci0Gtk7mUlHVgUkiOCCu4KeMn1CYiKweHtJsVmdmFyCrkojW3tyCAVadr4PCnAmQeVEwhBKpLfwff+nr5YPmsxIO4AFtoEHbgbpxkDkxHvV/8AB2mZkFxh6VwkggkxmVIkRMe8ggxBqp9P0D6rUrZRSLQm8zqsBVcwEB/vQgHuTJyMm6dc1F21stabbuNtvLX8qKoG+7dY/CqgiMyWjmTUygpNWe7x8fFX7/4S/Uul2r67biT3lSVMjvI55PM1WdV4FQAizdKj+7cG7/cIIH2NQvQfE1+26W7qXWu3VNwB/i1DvCWgCRFm0qrJIByCfkb1qbhdlRW2kEbthEz6sKWEEKRuPfAwcqTikdzn3UfCmrRQotI6rPqtGWM9iphjHyXvVf1li4oClWR9yyrAK23cN0B4E7ZrsOp1Vu2uy5dKYnzDKgSZxcYFccQSccz3jep9QuW1Qm0Nbp2KqSotm4pYgBipi3cUk8rtj2gTTiDnmn6ubVwpav3rf90NIx7+U6gN9Rit7X+JtTd099GvkLbtrca4iBWZTcW0yMBOD5gPpj4fnVh12j6Xdt6gkeUbAAvKn/bZh6VNuWtO04gTkRM1Bt4YVL+p0XmSLmktFm+Z1FndtBJjiB2E1SVMxmj4J6WdQx1ewBLQKadW4Jk+s8GBPY5O7+6K6t4c1y3lLIwZQdoYd4VCSR2ySfpFUzq7W7QGjt3NiFVV/SxREgxbhQTLkSTn0DMbgatfgjpgsaYfEXdmdy05ZoyBA2jaq4gEcHM1q7Dfos1KUqzD5SlaPVeopp7bXH4HAHJJ4UfM0MbSVs89T6gtkL3ZiQBk4AlmIUEwB7DkgYmuZ6rrQZ7lxWW7cKMVN3dbJOcKhkbQoHoJEx3Nani/r9xodU3AKCXAubgSSWQFlWFUYwCIJyScVG11U3W22bTveb0quDBOBOfn7D5+9T+4hNSd/BP9f6h5ZS2Lbi5sBL3lK7huMbVB2+XO4grE8cTUVpOl3tQLl0MtsWxuNx2Itg+khdwUwdo4jGPkDuJpB5ahmt3ioIZiRlpyLRUBigkgMTBIYiAROS2bVi2UNttzXEYncwZQjTAB9JgADI5kmIgmtaOXPHKdVv6IhresQKt0JZW7xeZRxgFiVMiAZ+GflJFTlm4NNbVLdqUYBSWH7xpjLwCQWMY4GFGBLe7/AFWy9x3uPdYHZsZ1tjbtzLBJBIPECOWOcVuadl8yzdXU23WDANtnVSTtBfy5O8+oAAAj71Ltqmd+tvo+vZR7YuC21uDtc3CAAxaNoXMwATHOfYZx3bW9NiqnoHqc7PSMEIHXBPpLbp/O2BWm9zXPfFoAOxJyYghiJdjyoiBjgKBGKtGo6bdt3F2S7FQJCHYkbpgk4jAFv1csZE52OkeWcOVyitFZ3oE2i2AxGTIktI2kyMCMR3xkVGa3oQTO1QDMPbO0nAPp2nPIyVOI7EVLazSMs7t22YkiDOeVmV4PNZH0t1Ldv9w6sQbiMskmI9RUcYDZImAsYEmkeaE5q18FXfS3FMB/tcWYzkb0yT/lr4L1xfittAn1JDqPmdslce4q3FLdxw5uJcYDaUcG2T2WIX2BAUAR6Bkk151fTLTBmVLqbTGRvXdM4dRhRPxTwBjND0QzSX2VvQ2fMi5yoygj4iDHmMP7qnAB5bnAIM3Z0sJ5rRsDAGSdzSclR3iDJn3rZuac+XtUI59JZkuE5RWEtuzO3dyYwTEbYjdfrfLX95PpxtOCIiRngwI/SsZylNznVE00Mgfy28oqNjDAIiW9DDY1xdpkEj2jgr5REVwGRlUW22FWj1srMd7gQi4I4gx9av6dat29EuouIbVvywwtv8QG0QpHM/Lmub/9US8RcRRaR4chVUzIyCvCggiQoyUHuTWHfJGOOm/ZkUJCzccgiA91VUK1wbGtLJI2EAR2Ek9hOIooIUErtA2MVKbm3uWcsRwoULHupg8mslpnlQhVwDG1GNuVMD4cjeAGz3lZExLTFxcZIhyoUOxEIiqF3BRI+EdjH2mqOcpprTPuoULbCC3ILll2srjABKA/GFhpIEDI+2v1PqJe2izgA+YpSJ4FsBtxBABOAqxnHEbNzWJbRra3IcWiLZt+WQN7RvD/ABAmJ7MOZO4VWtRrVLwxjOJBXfP5lkAEHtHaKmi8cJSlt+tmTzHhRuaBO1ZO1Qeyg8Cs9nqTquxkRxnkENn2ZY9gczED5iplfCeoNtXGySJ2EwwngSRtn5TioTqOhu2QTctOijJYj0/6x6f50tHqeOL7R0zw11TSrbVEuqGMEhzBk8KJ5C/D9p71ZVeRIOPl/wDVcJZiVU7WIgSdphcT6vbj+tetF1LUo4TT3LgY8KhJn/Jwf0qORaR2i5pUUvcS2PNeJZQu+QNoMvjAJxPvTSaZgJZiTGNwHpOc4YyTIHxEkDmSTXMdF+0jU28XUt3R7xtb9RI/lVg03jzQ34F621sjgsu4KT/dZfUPrittGlh13WxpQG1Q2ITt81Ja2pJAHmCN1uSeYZRwW4rbQ6fV2zBtX7TYMFLiE95iRNa2mu6XUW2S3cS6jqUYeYXMMIIO8k8GINVDxIU0dxjb1D3NXct+QCfLA0tlTvZtlpVAb1emRMtInNUkYQvjLXWlP4bSWlSytzYEtiBe1DQpOORbBj5tjsKsfWNaLfUL1yN23QrcAJgGL1siT2EgZqu/s/6ebznUvuSyvos2yxCkJMuy8MZJM9ju9hU917Stc1t1Rt9WhFuWmJa7iQMkek8ZxRsmTaSNTwbprms1L3GZ/Lt3G3Tt23rkH1TkgKrHAxDKuQCK65bthQAO1RPh7pq2bSgDtjjPcsYxk5/pExU1VI0UpStB8NU3W6g3Ljlhm27Iq/3QDz9W5n6e1XKoLqPRS7M67ZPYyD9mH9K83kwlONRMXaZXF0r3CQyDZEnb6iP8qyZ+VSGm6Jp71i2DaZLe2VtttVk3TLbkO5WYMQQGghoI5rVu2tRaZRLWlE+swUMyYuvlYwADyB2M4+avxJqNO4FzSm7b2hi9kgsATE7PbBzI4p4+LhEuT5do0Nd4HKlTYuN8X5tsqO0EbePtxXPPGIe1qmVLhuBFtqWHqBKrDc5+L2+nzN/6r4gspbuX7RuhtQwRjcMlQiqNlpJhZDTj3JqtawMqILtq3m3+7Un1JuyzP6RLbiSPbjsa7v6PFP8ATw246ZB+F9ONXfFu6pYAFvLQN+8I4VzyicknuFjHIl9NcOnB01q4txjckBFMXOwO4ncQGkADHJk1H3NPbs3GS75i3APT6YG6MiWgkAkZWr74e8Orbm4203QGVXQCbYIAkbhhsAwwxxGTRt9lx5ZGk1S/ufekXLdlrgcDfbtB9RdBGy1gEIW5LsJYj2A/hFWJHlAwVsgHaRDCfcE4Py5qI6V0EWUW21zzLaubvqWHuXCxY3br7iLhBggQIKg5IWJqpPVFKKpGprOnWr0C5bDHgHO4fQjNaen6Lsdmt3rgDgblYK4bb8M7hJUQMdwImpdiADMAQZJ4iMz8oqD03Wt6+YluUu3PL06iQ94CfMumcLa5Mx8Kz+ZVpsl44N21s9N0pn/d3Ldp1mQ7G4zAEjcArEsoCgwofaCZziK71JbVtC1m49u4GIFpSzpIcj0swztC5bPqiIINb3jnxGdOvkWWHn3Bzj92p/Mf4jwB3P0qmpoGtW0DGQZOWBMzLbhyCZnPuKqLZ5fIhGMbSN7VdRbDkqpQcou04iMzP5VHaInkkne8B+Gjrrv4q8v/AKa237tDxddT3nm2p592EdmFRPQ+jv1LUi0hK2bcNduD8qyYVSfztBA9oJjEHpnivr9rpelVLaqCFCWrQxECB9hzPyJzRl4cfFcpdlW/bN1e2bdvSA7rvmC4QvYAMIIHMk8e4+VVvRWwlq2n5lUB4Pf2+o4J4nj3On0PQXtXqhIV7rt5l1rgO23bUjczZEL2AnssEZI3rurt27zBD5yq7Hf8K3JJJ2qZKiSYJZpwccVmyfJhLIkke6y2/LIl9+6RkQVIHYg5n7/LEyN3X2UVbV508pLilhbPxMBJ3KFHBDKAMGBWxdNpUZmVJYcYiThQOIAIIL54Y49NEeH9GcJbMWp0LlRvJuOLaINxJIgNFsA5G7kFfh2nBU1J+HOjNIuXDKr8KnK7sEkAj0lTj/EpzgGtHovT71x1G8C2smVIZRMH0TMM0j1fUziruiBQAAABgAdqyT9Hv8dN/lJHqa8k16ivJWsPYRut6NYubt1uC3xFCVLf4tsBvvNVnqHgANJtXv8ALdAP+9Y/9tXeaE1lIHG+q+GtXZktZZlH57frX6+nIH1ArQ0ut2W7ltQo8woxYg7gUgQHEkAiZXaZ9xXcd1R3Uejae/8A2tpGJ/NEP/rWG/nW9GUce/EsBu2KY4dRBHt6rRAB/wAWflUzrumPqr2ntqYW7pbF/UXO8DdJJGOFH1IBOZNSniLwVbt2nu2Ljr5as5Rs+nEgOII9szMxVh6Xft2NDZvFA1w6ezaUd7hAbYk+2SfkNx96pE+9mDrvUbelW3b0yAuLYVRtn0tlbajmX2ye4Vc8g1fOjaVHf8TzKBEPyE7mH1Jj7H3rnPhzpzazUecb3mKr+rYCu+4UXcCT6lgmI42oo4Ndc01rairj0qFwIGBGB2FakZdmelKVQFKUoBSlKAVHv0q0SWVdjHlrfpJ/xAYbk/EDzUhSgKZ1Xwe1xt63RcMkgXhBUkz6biD0fZewqua7oF20/mMlxG53geYv1LCSBjliP511WlTxOU8MJ9o4i+iNxrbulu+ltGtrAWAG3+opjewZ2aJyYyK0OrW/Ju3tejvxaVVBZWFzYqRdAgqCyFpMAggCSTt7Xreiae8Sblpdx/Osq/8ArWG/nUJqvCRH9ncVhBBS8gIYc7S6xjj4g3A9qymZjxuD7tHJenftG1lqEvIt3tkQ/wDtiT3zVq6X+0rR3IFzfaP8Q3L/AKhn+VfdZ4KNl/NRL1i4DIuWov25PJ2sPMj6gCqPrPBuoJd7TpqCWkm24DgkktvtPBJ/hE/8Vtr2d0zrjPp9bae2Lgu27iwwt3CGjBztIYD68jBxUV1vW2+m2/MBa5dKi1YR9g2IIhECKoVBtBJiTtEk7VA49rtN+GFsJ59u9E3VuKU2sDjYOSPmasXVUveRpL2p8zzBauWyLobexW65QndnKOgnkhFFY18BukRjapzd8y42+7cYs5P0McZ5AAUe1WzU+GdYyWkt2Gd77Bze/wC2gZcKxHwooEkkZkBZ74uk9MC3rd3UWxtCK11ZBgCJ3CQFV2aMmSEYRBroF/x9pPw9y8jEtbH9mVIbcRKqJwcdwSMH2NacY1KTv0ebGr0PRrAsG4oYAuxYjfccjLlRkkwBAmAAK5H1nq76y82qumFE+Wp4UA8c89yRPEGQBUdqb93W6hrt1gWcySSdqgcKPYCY98z711vo/wCzzRvYstcPmMCHc27k23x/ZkiQy8SwgmOYMVp1s5/c6XrntTY01x7aSrsqD4/zgLMsVJKFgD8O3ERUWuluababq5b4E7kgiVZWEHmDyOZ5r9JKY4xHYf0ArgPjRL41DX9RZe3evFmAuMsJbBCoq7eCFAB9R5mF7rB56z4lvavVWnd1JUoiqg2ryAdok7SSSZk/oABKv05rh/8AT3FVztU24KlJYD1gAjbC3JJCyUkj1ZpvTtIXfeWVPKZGKlHaQTyAARGBhiJBxNdL0HV1a9p7Nu55tq60t6W2wZBDIy+kyRP1AnNS2RW+y46DSC3bCjJ7nAk/QAD9AMVmJr5aBRhbYFkPwPksP4Lh5OOHPPDZgvsvpvY1NHaqNea+Gsj2GFYzWg+V8oTXygFeGMV6NaHU+q29LbN66wA3BLYJA3Ofr2GT9AfYUoGn4i1iC3f0o9V06d7rwfgAKBUPzO8n7T+YVVNfpr163pLNuc6ZAhkAKxvXFYkRLHYg/wAqtHepbT9LsG3qtRZ1T37161cBDXLZMsUkgKoIAKqB2AirP4Q8Pwtq66/DZFpZPI825c3KvYMLi5OTtGIgna9HJv8AImvDHRk01lEUcCAe5nLOf4mJJ+/zqepSrKFKUoBSlKAUpSgFKUoBSlKAUpSgFR+v6TYv/wBraVj2aIcfRxDD7GpClAVbVeFTjytQ4AIIS8BcUEcFWMOp+cmqZ1bwU27dd0915JPm2bguBZmZtvD5/hVvrXW6VLimTKKkqZxX/pDm3+Gs3LbLMuoBS6ZM+u23qx9BVV6h0rUWnuLscoxCxtHqiQpkTDeo4nvX6G6l0qxqAFvWUuAGRvUEqfdScqfmKiNR4UX/ALV64n8Fz97b/RzvA+QcVlNdHFYXF3FnC9JpxaRgoDNEO35ZkEKh47c5mGIxWTp+quWSXt3LiOckozL/AO0xHyq++J/Bl/y2NvTozDO6wxyADO600Gcz6Sx/WuW9LNuwLy37V1nZP3XlsAFcEiLikGVJ++MczVR62dMcZJfl2XXov7TdWl1LV0JfRnVdzDa43MAPUsAxPcVGeOtQ2queYzFmF1rW0TAO1W2KeMSPvNQP4Ih94mFIYH5gyBP1FWy4wuAFEVd12Uu7ocbmncE5UlpzzAPHaZtp2Zkmor79EXoxc0QFraCWIuOJB7DbO0yCM4PvMZzbel6zzHsXLdtE3FFJiblwhw107oHpQQM8Sfevt61Y0wBuCWbuQSxiPYf/AEMV9ezaZFv212wQwMEE7W7gx7RXlXkxc+mU8eRR20X+cj6j+sV9a2CScgzypI/WMH7zWlZ1qsxj4QUIacMCRx9PatwOCT9a9KZ2PDtcXhlb2D+k/wCtQR/trXv6A3R+9dvktpntgf51Idj8yY77RWzdWYI7TWLeV7Hv9Pl8qWaaLdKup/Z6gsP7l5Q32FxNrj6tvrGbt1P7Syw/itHzF/QAXP8AZUsl08RJ71lpXwYRNi4tz4WG0fEZ+EASd0/CY964p468R/jdR6D+4tSloe47vHu0foB866v+0u8ydN1BViCVtqY9muorD6EEiuA2lkx74n2mqiiWdE/ZtoWt6qyrKCL+9XBHw2wobPzYqo+h+Yr9BAVQf2a+Hjat/iLuXcAW5HwpiMe7QGP2H5av9avkwUpStApSlAKUpQClKUApSlAKUpQClKUApSlAKUpQClKUAqB6r4T0epffdsKX5LKWVm/xFCN33qepQEJZ8NaVECJaCAe0zn+9und/mmo3XeC7D5CCfcelpHeVEE/YVbK+Vjin2RKEZKpKyl6npl62vpgkcbxH3LpK1UerpqZBu2zsBmFBKtHuQSYrsVal/p1t5lYJ7qSD945+81xj48Yu0RlhKceKk0fn9jcVmNq/ctTMqYZPrgYJ+S1M9G8V6qyQt4Lctk5uIcjEDconkgDtzXSepeEbdyTCMf4htb/Wg4+W2qrr/BRRt6F0IMjeoZcZ+JJAH+Kqdo86WbG17X+yX0vX7dxcmJH2+Vb9q/uypkQOCOwHAP0/nXPOodGvCG8lCo/NZ3Qf9LT+kcVk0C3kE27gYwCUJkiSYUsI2jAnkiQOTBR2d35UVLir/wAo6KjSYOCR2kH9DWytUnTeJrlshbtth2kAsCZgxA3EAiJ2xz7VN9P8R2rrBQwkmMEfT7Zqjqs0ZGl+0bTl9DdReWFv/wDdb5+VUj9nXgf8RqxcuLNiyQ89rhmba/fDH5QO9dE8W2rj2hatiWuFU+QBMlj8htn3PAyasnhvpKaTTpaTsBM8kxyT3Pufea1MtknbQKAAAAMAAQB9BWSlKowUpSgFKUoBSlKAUpSgFKUoBSlKAUpSgFKUoBSlKAUpSgFKUoBSlKAUpSgFKUoDTv6C25krBP5lJVvuywajdV4ctvkgMR8JIAcH5OvH1ifnU7SsaTJcU+0c+6h0K8isii55ZERi4ABPwsIdcEiTjJxULpPDT3rgYBiwO4FVKIn0f8q/IZx3rrVKnj9nB+NBtPZF6LpmzYXdnZRmdu3djMATzxJP6ipalKs9IpSlAKUpQClKUApSlAKUpQClKUApSlAKUpQClKUApSlAKUpQClKUApSlAKUpQClKUApSlAKUpQClKUApSlAKUpQClKUApSlAf//Z;" vertex="1" parent="1">
          <mxGeometry x="-421.11" y="805" width="104.22" height="67" as="geometry" />
        </mxCell>
      </root>
    </mxGraphModel>
  </diagram>
</mxfile>
